<?xml version="1.0" standalone="no"?>
<!DOCTYPE svg PUBLIC "-//W3C//DTD SVG 20010904//EN"
 "http://www.w3.org/TR/2001/REC-SVG-20010904/DTD/svg10.dtd">
<svg version="1.0" xmlns="http://www.w3.org/2000/svg"
 width="700.000000pt" height="700.000000pt" viewBox="0 0 700.000000 700.000000"
 preserveAspectRatio="xMidYMid meet">
<metadata>
Created by potrace 1.11, written by Peter Selinger 2001-2013
</metadata>
<g transform="translate(0.000000,700.000000) scale(0.100000,-0.100000)"
fill="#000000" stroke="none">
<path d="M3780 6192 c-388 -24 -741 -148 -1010 -355 -139 -107 -288 -275 -383
-433 -54 -90 -127 -248 -119 -256 4 -4 165 -68 357 -141 l350 -134 22 36 c165
274 343 429 577 500 125 38 215 49 362 45 435 -13 703 -223 764 -599 42 -255
-20 -476 -180 -635 -117 -118 -248 -181 -445 -215 -22 -4 -154 -9 -293 -10
-139 -1 -256 -6 -259 -9 -7 -6 -12 -701 -6 -721 2 -6 82 -10 214 -10 419 0
583 -28 781 -132 64 -33 218 -155 218 -171 0 -5 9 -18 20 -30 34 -36 97 -162
119 -237 51 -177 48 -370 -9 -545 -85 -262 -294 -438 -608 -514 -316 -76 -663
-44 -911 85 -215 113 -381 284 -501 517 -24 45 -47 85 -52 88 -5 3 -23 -1 -41
-9 -18 -8 -113 -48 -212 -87 -99 -40 -193 -78 -210 -85 -16 -7 -78 -32 -137
-56 -60 -24 -108 -47 -108 -53 0 -5 29 -68 64 -140 189 -385 459 -660 827
-841 90 -45 254 -108 309 -120 8 -2 42 -10 75 -18 53 -13 118 -26 219 -42 141
-22 521 -23 641 -1 11 2 43 7 70 11 28 5 52 9 55 10 3 0 28 4 55 9 28 4 73 14
100 22 139 41 221 68 229 76 6 4 16 8 23 8 13 0 157 69 228 109 35 21 135 89
190 131 27 20 173 166 210 210 140 164 271 464 301 685 3 28 8 53 11 57 4 8
16 195 17 268 2 195 -60 447 -146 593 -15 26 -28 50 -28 52 0 3 -27 40 -60 83
-133 174 -280 293 -500 401 l-122 60 44 22 c49 25 156 99 208 144 219 191 360
457 398 750 9 67 8 360 -2 410 -65 350 -217 616 -481 841 -235 201 -571 338
-910 370 -70 6 -260 10 -325 6z"/>
<path d="M420 4089 c-173 -70 -319 -130 -325 -132 -5 -2 5 -25 23 -51 17 -26
32 -51 32 -55 0 -5 4 -11 8 -13 4 -1 181 -250 392 -553 211 -302 455 -651 542
-775 87 -124 160 -229 162 -235 2 -5 5 -8 8 -5 3 3 104 147 225 320 121 173
366 524 545 780 179 256 344 492 366 525 l42 60 -158 63 c-86 34 -168 67 -182
73 -14 5 -87 35 -162 65 -76 31 -143 54 -150 51 -7 -2 -128 -169 -268 -370
-194 -277 -258 -362 -267 -354 -6 7 -61 84 -123 172 -61 88 -118 169 -126 180
-8 11 -71 101 -140 200 -69 99 -126 180 -127 181 -1 1 -144 -56 -317 -127z"/>
</g>
</svg>
