<svg xmlns="http://www.w3.org/2000/svg" width="933.333" height="933.333" version="1" viewBox="0 0 700 700"><path d="M378 80.8c-38.8 2.4-74.1 14.8-101 35.5-13.9 10.7-28.8 27.5-38.3 43.3-5.4 9-12.7 24.8-11.9 25.6.4.4 16.5 6.8 35.7 14.1l35 13.4 2.2-3.6c16.5-27.4 34.3-42.9 57.7-50 12.5-3.8 21.5-4.9 36.2-4.5 43.5 1.3 70.3 22.3 76.4 59.9 4.2 25.5-2 47.6-18 63.5-11.7 11.8-24.8 18.1-44.5 21.5-2.2.4-15.4.9-29.3 1-13.9.1-25.6.6-25.9.9-.7.6-1.2 70.1-.6 72.1.2.6 8.2 1 21.4 1 41.9 0 58.3 2.8 78.1 13.2 6.4 3.3 21.8 15.5 21.8 17.1 0 .5.9 1.8 2 3 3.4 3.6 9.7 16.2 11.9 23.7 5.1 17.7 4.8 37-.9 54.5-8.5 26.2-29.4 43.8-60.8 51.4-31.6 7.6-66.3 4.4-91.1-8.5-21.5-11.3-38.1-28.4-50.1-51.7-2.4-4.5-4.7-8.5-5.2-8.8-.5-.3-2.3.1-4.1.9-1.8.8-11.3 4.8-21.2 8.7-9.9 4-19.3 7.8-21 8.5-1.6.7-7.8 3.2-13.7 5.6-6 2.4-10.8 4.7-10.8 5.3 0 .5 2.9 6.8 6.4 14 18.9 38.5 45.9 66 82.7 84.1 9 4.5 25.4 10.8 30.9 12 .8.2 4.2 1 7.5 1.8 5.3 1.3 11.8 2.6 21.9 4.2 14.1 2.2 52.1 2.3 64.1.1 1.1-.2 4.3-.7 7-1.1 2.8-.5 5.2-.9 5.5-1 .3 0 2.8-.4 5.5-.9 2.8-.4 7.3-1.4 10-2.2 13.9-4.1 22.1-6.8 22.9-7.6.6-.4 1.6-.8 2.3-.8 1.3 0 15.7-6.9 22.8-10.9 3.5-2.1 13.5-8.9 19-13.1 2.7-2 17.3-16.6 21-21 14-16.4 27.1-46.4 30.1-68.5.3-2.8.8-5.3 1.1-5.7.4-.8 1.6-19.5 1.7-26.8.2-19.5-6-44.7-14.6-59.3-1.5-2.6-2.8-5-2.8-5.2 0-.3-2.7-4-6-8.3-13.3-17.4-28-29.3-50-40.1l-12.2-6 4.4-2.2c4.9-2.5 15.6-9.9 20.8-14.4 21.9-19.1 36-45.7 39.8-75 .9-6.7.8-36-.2-41-6.5-35-21.7-61.6-48.1-84.1-23.5-20.1-57.1-33.8-91-37-7-.6-26-1-32.5-.6z"/><path d="M42 291.1c-17.3 7-31.9 13-32.5 13.2-.5.2.5 2.5 2.3 5.1 1.7 2.6 3.2 5.1 3.2 5.5 0 .5.4 1.1.8 1.3.4.1 18.1 25 39.2 55.3 21.1 30.2 45.5 65.1 54.2 77.5 8.7 12.4 16 22.9 16.2 23.5.2.5.5.8.8.5.3-.3 10.4-14.7 22.5-32s36.6-52.4 54.5-78 34.4-49.2 36.6-52.5l4.2-6-15.8-6.3c-8.6-3.4-16.8-6.7-18.2-7.3-1.4-.5-8.7-3.5-16.2-6.5-7.6-3.1-14.3-5.4-15-5.1-.7.2-12.8 16.9-26.8 37-19.4 27.7-25.8 36.2-26.7 35.4-.6-.7-6.1-8.4-12.3-17.2-6.1-8.8-11.8-16.9-12.6-18-.8-1.1-7.1-10.1-14-20s-12.6-18-12.7-18.1c-.1-.1-14.4 5.6-31.7 12.7z"/></svg>