<?xml version="1.0" encoding="utf-8"?>
<!-- Generator: Adobe Illustrator 19.2.0, SVG Export Plug-In . SVG Version: 6.00 Build 0)  -->
<svg version="1.1" id="Layer_1" xmlns="http://www.w3.org/2000/svg" xmlns:xlink="http://www.w3.org/1999/xlink" x="0px" y="0px"
	 viewBox="0 0 1664 512" style="enable-background:new 0 0 1664 512;" xml:space="preserve">
<style type="text/css">
	.st0{fill:#337F87;}
	.st1{fill:#FFFFFF;}
	.st2{fill:#060606;}
	.st3{fill:#1B5860;}
</style>
<g>
	<path class="st0" d="M512,497c0,8.3-6.8,15-15,15H15c-8.3,0-15-6.8-15-15V15C0,6.8,6.8,0,15,0h482c8.3,0,15,6.8,15,15V497z"/>
	<g>
		<g>
			<g>
				<path class="st1" d="M71,158.6h14.8v119.1H71V158.6z"/>
				<path class="st1" d="M119.5,158.6h47c28.6,0,37.6,17,37.6,33.9c0,14.1-7.8,29.1-27.7,33.2l25.5,52.1h-16.7l-24.5-51.1h-26.4
					v51.1h-14.8V158.6z M166.8,212.8c16.7,0,22.3-10.2,22.3-20.1c0-8.9-4.8-20.4-22.3-20.4h-32.5v40.5H166.8z"/>
				<path class="st1" d="M227.6,218.1c0-30,14-61.6,49.4-61.6c22,0,33.2,10.7,38.5,21.4l-13.3,6.8c-5.6-8.3-12.1-14.5-25.2-14.5
					c-25.5,0-34,26-34,47.8c0,23.7,10.2,47.7,34,47.7c13.1,0,20.4-6.1,25.9-15.1l13.6,5.1c-6.1,13.3-18.6,24-39.5,24
					C240.8,279.7,227.6,248.4,227.6,218.1z"/>
			</g>
			<g>
				<path class="st2" d="M359.3,252l13.8-5.6c5.6,13.6,14.8,19.2,26.9,19.2c14,0,25.5-6.6,25.5-21.3c0-12.6-8-21.6-24.7-21.6h-8.5
					v-14h7.7c12.6,0,20.9-7.7,20.9-18.9c0-12.1-8.5-19.4-20.4-19.4c-13.1,0-20.1,8.3-23.7,16l-13.8-5.3
					c5.3-13.6,17.9-24.7,37.4-24.7c20.8,0,35.9,13.4,35.9,31.7c0,10.7-5.4,20.8-15.3,25.9c12.3,4.9,19.9,15.1,19.9,29.8
					c0,22-18.2,35.9-41,35.9C377.9,279.7,365.4,268.2,359.3,252z"/>
			</g>
			<polygon class="st1" points="313.1,202 339.8,243.5 348.6,229.8 326.4,195.2 			"/>
			<polygon class="st2" points="366.5,201.9 339.8,243.5 331,229.8 353.2,195.1 			"/>
		</g>
		<g>
			<path class="st1" d="M71,305.5h5.9l4.8,23.9c0.4,2.2,0.7,3.5,0.8,4.5c0.1-1,0.4-2.2,1-4.5l6.1-23.9h4.8l6.3,23.9
				c0.6,2.2,0.9,3.4,1,4.4c0.1-1,0.3-2.3,0.8-4.4l4.9-23.9h5.8l-8.4,38.8h-5.2L93,319.2c-0.6-2.1-0.8-3.2-0.9-4.2
				c-0.1,1-0.4,2.2-0.9,4.2l-6.5,25.2h-5.2L71,305.5z"/>
			<path class="st1" d="M118.5,330.2c0-9.3,5-14.9,12.9-14.9s13,5.5,13,14.9c0,9.3-5,14.8-13,14.8S118.5,339.5,118.5,330.2z
				 M138.7,330.2c0-5.8-2.8-9.4-7.2-9.4c-4.4,0-7.2,3.6-7.2,9.4c0,5.8,2.8,9.4,7.2,9.4C135.9,339.6,138.7,336,138.7,330.2z"/>
			<path class="st1" d="M151.4,316h5.8v3.4c1.3-2.9,3.5-4.1,6.3-4.1c1.9,0,3.5,0.6,4.8,1.7l-0.8,5.3c-1.1-0.7-2.4-1.4-4.5-1.4
				c-2.6,0-5.8,1.6-5.8,7.4v15.9h-5.8V316z"/>
			<path class="st1" d="M190.9,344.3l-8.4-16.3l-3.7,3.7v12.6h-5.8V307l5.8-2.7v20.5l8.4-8.8h7.1l-7.8,7.9l10.6,20.5H190.9z"/>
			<path class="st1" d="M203.1,308.1c0-1.9,1.6-3.5,3.5-3.5c1.9,0,3.5,1.6,3.5,3.5c0,1.9-1.6,3.5-3.5,3.5
				C204.6,311.6,203.1,310,203.1,308.1z M203.7,316h5.8v28.3h-5.8V316z"/>
			<path class="st1" d="M235.4,327.4c0-4.8-2.4-6.7-5.7-6.7c-3.4,0-6.1,1.7-6.1,6.5v17h-5.8V316h5.8v2.7c1.8-2.3,4.2-3.4,7.3-3.4
				c5.9,0,10.2,3.2,10.2,12.1v16.9h-5.8V327.4z"/>
			<path class="st1" d="M255.8,351c8.3-0.5,10.5-2.9,10.5-6.4v-2.5c-1.6,2-3.9,2.9-6.8,2.9c-6.5,0-11.6-5-11.6-14.9
				c0-9.3,4.8-14.8,11.8-14.8c3.3,0,5.5,1.4,6.7,2.7v-2h5.8v26.5c0,9-4.6,12.3-13.4,12.9L255.8,351z M266.3,336.2V324
				c-1.2-1.9-3.4-3.2-5.8-3.2c-4.5,0-6.9,3.3-6.9,9.4c0,5.8,2.7,9.4,6.9,9.4C262.8,339.6,265,338.4,266.3,336.2z"/>
			<path class="st1" d="M293.1,324.9c0-9.5,5.3-20.1,16.9-20.1c7.4,0,10.9,3.5,13.3,7.4l-5.2,3c-1.8-2.6-4-4.7-8-4.7
				c-8.4,0-10.9,8-10.9,14.4c0,7.4,3.2,14.4,10.9,14.4c4.9,0,8.2-3.6,8.2-8.2v-0.8h-7v-5.4h12.9v5c0,9.8-6.2,15-14.1,15
				C298,345,293.1,335.1,293.1,324.9z"/>
			<path class="st1" d="M331.9,316h5.8v3.4c1.3-2.9,3.5-4.1,6.3-4.1c1.9,0,3.5,0.6,4.8,1.7l-0.8,5.3c-1.1-0.7-2.4-1.4-4.5-1.4
				c-2.6,0-5.8,1.6-5.8,7.4v15.9h-5.8V316z"/>
			<path class="st1" d="M352.6,330.2c0-9.3,5-14.9,12.9-14.9s13,5.5,13,14.9c0,9.3-5,14.8-13,14.8S352.6,339.5,352.6,330.2z
				 M372.7,330.2c0-5.8-2.8-9.4-7.2-9.4c-4.4,0-7.2,3.6-7.2,9.4c0,5.8,2.8,9.4,7.2,9.4C369.9,339.6,372.7,336,372.7,330.2z"/>
			<path class="st1" d="M402.7,341.6c-1.8,2.3-4.2,3.4-7.3,3.4c-5.9,0-10.2-3.2-10.2-12.1V316h5.8v16.9c0,4.8,2.4,6.7,5.7,6.7
				c3.4,0,6.1-1.7,6.1-6.5v-17h5.8v28.3h-5.8V341.6z"/>
			<path class="st1" d="M422.5,341.9v10.9l-5.8,2.7V316h5.8v2.3c1.5-1.7,3.5-2.9,6.8-2.9c7.2,0,11.6,5.5,11.6,14.9
				c0,9.3-4.7,14.8-11.6,14.8C426,345,423.9,343.6,422.5,341.9z M435.2,330.2c0-5.5-2.4-9.4-6.7-9.4c-2.7,0-4.7,1.2-6,3.2v12.3
				c1.3,1.7,3.3,3.3,6,3.3C432.8,339.6,435.2,336.2,435.2,330.2z"/>
		</g>
	</g>
	<path class="st3" d="M1664,497c0,8.3-6.8,15-15,15h-482c-8.3,0-15-6.8-15-15V15c0-8.3,6.8-15,15-15h482c8.3,0,15,6.8,15,15V497z"/>
	<g>
		<g>
			<g>
				<path class="st1" d="M1223,158.6h14.8v119.1H1223V158.6z"/>
				<path class="st1" d="M1271.5,158.6h47c28.6,0,37.6,17,37.6,33.9c0,14.1-7.8,29.1-27.7,33.2l25.5,52.1h-16.7l-24.5-51.1h-26.4
					v51.1h-14.8V158.6z M1318.8,212.8c16.7,0,22.3-10.2,22.3-20.1c0-8.9-4.8-20.4-22.3-20.4h-32.5v40.5H1318.8z"/>
				<path class="st1" d="M1379.6,218.1c0-30,14-61.6,49.4-61.6c22,0,33.2,10.7,38.5,21.4l-13.3,6.8c-5.6-8.3-12.1-14.5-25.2-14.5
					c-25.5,0-34,26-34,47.8c0,23.7,10.2,47.7,34,47.7c13.1,0,20.4-6.1,25.9-15.1l13.6,5.1c-6.1,13.3-18.6,24-39.5,24
					C1392.8,279.7,1379.6,248.4,1379.6,218.1z"/>
			</g>
			<g>
				<path class="st1" d="M1511.3,252l13.8-5.6c5.6,13.6,14.8,19.2,26.9,19.2c14,0,25.5-6.6,25.5-21.3c0-12.6-8-21.6-24.7-21.6h-8.5
					v-14h7.7c12.6,0,20.9-7.7,20.9-18.9c0-12.1-8.5-19.4-20.4-19.4c-13.1,0-20.1,8.3-23.7,16l-13.8-5.3
					c5.3-13.6,17.9-24.7,37.4-24.7c20.8,0,35.9,13.4,35.9,31.7c0,10.7-5.4,20.8-15.3,25.9c12.3,4.9,19.9,15.1,19.9,29.8
					c0,22-18.2,35.9-41,35.9C1529.9,279.7,1517.4,268.2,1511.3,252z"/>
			</g>
			<g>
				<line class="st1" x1="1454.1" y1="184.8" x2="1467.4" y2="178"/>
				<polyline class="st1" points="1478.4,195.2 1500.6,229.8 1491.8,243.5 1465.1,202 				"/>
			</g>
			<g>
				<line class="st1" x1="1534.9" y1="176.2" x2="1521.7" y2="169.4"/>
				<polyline class="st1" points="1518.5,201.9 1491.8,243.5 1483,229.8 1505.2,195.1 				"/>
			</g>
		</g>
		<g>
			<path class="st1" d="M1223,305.5h5.9l4.8,23.9c0.4,2.2,0.7,3.5,0.8,4.5c0.1-1,0.4-2.2,1-4.5l6.1-23.9h4.8l6.3,23.9
				c0.6,2.2,0.9,3.4,1,4.4c0.1-1,0.3-2.3,0.8-4.4l4.9-23.9h5.8l-8.4,38.8h-5.2l-6.7-25.2c-0.6-2.1-0.8-3.2-0.9-4.2
				c-0.1,1-0.4,2.2-0.9,4.2l-6.5,25.2h-5.2L1223,305.5z"/>
			<path class="st1" d="M1270.5,330.2c0-9.3,5-14.9,12.9-14.9s13,5.5,13,14.9c0,9.3-5,14.8-13,14.8S1270.5,339.5,1270.5,330.2z
				 M1290.7,330.2c0-5.8-2.8-9.4-7.2-9.4c-4.4,0-7.2,3.6-7.2,9.4c0,5.8,2.8,9.4,7.2,9.4C1287.9,339.6,1290.7,336,1290.7,330.2z"/>
			<path class="st1" d="M1303.4,316h5.8v3.4c1.3-2.9,3.5-4.1,6.3-4.1c1.9,0,3.5,0.6,4.8,1.7l-0.8,5.3c-1.1-0.7-2.4-1.4-4.5-1.4
				c-2.6,0-5.8,1.6-5.8,7.4v15.9h-5.8V316z"/>
			<path class="st1" d="M1342.9,344.3l-8.4-16.3l-3.7,3.7v12.6h-5.8V307l5.8-2.7v20.5l8.4-8.8h7.1l-7.8,7.9l10.6,20.5H1342.9z"/>
			<path class="st1" d="M1355.1,308.1c0-1.9,1.6-3.5,3.5-3.5c1.9,0,3.5,1.6,3.5,3.5c0,1.9-1.6,3.5-3.5,3.5
				C1356.6,311.6,1355.1,310,1355.1,308.1z M1355.7,316h5.8v28.3h-5.8V316z"/>
			<path class="st1" d="M1387.4,327.4c0-4.8-2.4-6.7-5.7-6.7c-3.4,0-6.1,1.7-6.1,6.5v17h-5.8V316h5.8v2.7c1.8-2.3,4.2-3.4,7.3-3.4
				c5.9,0,10.2,3.2,10.2,12.1v16.9h-5.8V327.4z"/>
			<path class="st1" d="M1407.8,351c8.3-0.5,10.5-2.9,10.5-6.4v-2.5c-1.6,2-3.9,2.9-6.8,2.9c-6.5,0-11.6-5-11.6-14.9
				c0-9.3,4.8-14.8,11.8-14.8c3.3,0,5.5,1.4,6.7,2.7v-2h5.8v26.5c0,9-4.6,12.3-13.4,12.9L1407.8,351z M1418.3,336.2V324
				c-1.2-1.9-3.4-3.2-5.8-3.2c-4.5,0-6.9,3.3-6.9,9.4c0,5.8,2.7,9.4,6.9,9.4C1414.8,339.6,1417,338.4,1418.3,336.2z"/>
			<path class="st1" d="M1445.1,324.9c0-9.5,5.3-20.1,16.9-20.1c7.4,0,10.9,3.5,13.3,7.4l-5.2,3c-1.8-2.6-4-4.7-8-4.7
				c-8.4,0-10.9,8-10.9,14.4c0,7.4,3.2,14.4,10.9,14.4c4.9,0,8.2-3.6,8.2-8.2v-0.8h-7v-5.4h12.9v5c0,9.8-6.2,15-14.1,15
				C1450,345,1445.1,335.1,1445.1,324.9z"/>
			<path class="st1" d="M1483.9,316h5.8v3.4c1.3-2.9,3.5-4.1,6.3-4.1c1.9,0,3.5,0.6,4.8,1.7l-0.8,5.3c-1.1-0.7-2.4-1.4-4.5-1.4
				c-2.6,0-5.8,1.6-5.8,7.4v15.9h-5.8V316z"/>
			<path class="st1" d="M1504.6,330.2c0-9.3,5-14.9,12.9-14.9s13,5.5,13,14.9c0,9.3-5,14.8-13,14.8S1504.6,339.5,1504.6,330.2z
				 M1524.7,330.2c0-5.8-2.8-9.4-7.2-9.4c-4.4,0-7.2,3.6-7.2,9.4c0,5.8,2.8,9.4,7.2,9.4C1521.9,339.6,1524.7,336,1524.7,330.2z"/>
			<path class="st1" d="M1554.7,341.6c-1.8,2.3-4.2,3.4-7.3,3.4c-5.9,0-10.2-3.2-10.2-12.1V316h5.8v16.9c0,4.8,2.4,6.7,5.7,6.7
				c3.4,0,6.1-1.7,6.1-6.5v-17h5.8v28.3h-5.8V341.6z"/>
			<path class="st1" d="M1574.5,341.9v10.9l-5.8,2.7V316h5.8v2.3c1.5-1.7,3.5-2.9,6.8-2.9c7.2,0,11.6,5.5,11.6,14.9
				c0,9.3-4.7,14.8-11.6,14.8C1578,345,1575.9,343.6,1574.5,341.9z M1587.2,330.2c0-5.5-2.4-9.4-6.7-9.4c-2.7,0-4.7,1.2-6,3.2v12.3
				c1.3,1.7,3.3,3.3,6,3.3C1584.8,339.6,1587.2,336.2,1587.2,330.2z"/>
		</g>
	</g>
	<path class="st1" d="M1088,497c0,8.3-6.8,15-15,15H591c-8.3,0-15-6.8-15-15V15c0-8.3,6.8-15,15-15h482c8.3,0,15,6.8,15,15V497z"/>
	<g>
		<g>
			<g>
				<path class="st2" d="M647,158.6h14.8v119.1H647V158.6z"/>
				<path class="st2" d="M695.5,158.6h47c28.6,0,37.6,17,37.6,33.9c0,14.1-7.8,29.1-27.7,33.2l25.5,52.1h-16.7l-24.5-51.1h-26.4
					v51.1h-14.8V158.6z M742.8,212.8c16.7,0,22.3-10.2,22.3-20.1c0-8.9-4.8-20.4-22.3-20.4h-32.5v40.5H742.8z"/>
				<path class="st2" d="M803.6,218.1c0-30,14-61.6,49.4-61.6c22,0,33.2,10.7,38.5,21.4l-13.3,6.8c-5.6-8.3-12.1-14.5-25.2-14.5
					c-25.5,0-34,26-34,47.8c0,23.7,10.2,47.7,34,47.7c13.1,0,20.4-6.1,25.9-15.1l13.6,5.1c-6.1,13.3-18.6,24-39.5,24
					C816.8,279.7,803.6,248.4,803.6,218.1z"/>
			</g>
			<g>
				<path class="st0" d="M935.3,252l13.8-5.6c5.6,13.6,14.8,19.2,26.9,19.2c14,0,25.5-6.6,25.5-21.3c0-12.6-8-21.6-24.7-21.6h-8.5
					v-14h7.7c12.6,0,20.9-7.7,20.9-18.9c0-12.1-8.5-19.4-20.4-19.4c-13.1,0-20.1,8.3-23.7,16l-13.8-5.3
					c5.3-13.6,17.9-24.7,37.4-24.7c20.8,0,35.9,13.4,35.9,31.7c0,10.7-5.4,20.8-15.3,25.9c12.3,4.9,19.9,15.1,19.9,29.8
					c0,22-18.2,35.9-41,35.9C953.9,279.7,941.4,268.2,935.3,252z"/>
			</g>
			<g>
				<line class="st2" x1="878.1" y1="184.8" x2="891.4" y2="178"/>
				<polyline class="st2" points="902.4,195.2 924.6,229.8 915.8,243.5 889.1,202 				"/>
			</g>
			<g>
				<line class="st0" x1="958.9" y1="176.2" x2="945.7" y2="169.4"/>
				<polyline class="st0" points="942.5,201.9 915.8,243.5 907,229.8 929.2,195.1 				"/>
			</g>
		</g>
		<g>
			<path class="st2" d="M647,305.5h5.9l4.8,23.9c0.4,2.2,0.7,3.5,0.8,4.5c0.1-1,0.4-2.2,1-4.5l6.1-23.9h4.8l6.3,23.9
				c0.6,2.2,0.9,3.4,1,4.4c0.1-1,0.3-2.3,0.8-4.4l4.9-23.9h5.8l-8.4,38.8h-5.2l-6.7-25.2c-0.6-2.1-0.8-3.2-0.9-4.2
				c-0.1,1-0.4,2.2-0.9,4.2l-6.5,25.2h-5.2L647,305.5z"/>
			<path class="st2" d="M694.5,330.2c0-9.3,5-14.9,12.9-14.9c7.9,0,13,5.5,13,14.9c0,9.3-5,14.8-13,14.8
				C699.5,345,694.5,339.5,694.5,330.2z M714.7,330.2c0-5.8-2.8-9.4-7.2-9.4c-4.4,0-7.2,3.6-7.2,9.4c0,5.8,2.8,9.4,7.2,9.4
				C711.9,339.6,714.7,336,714.7,330.2z"/>
			<path class="st2" d="M727.4,316h5.8v3.4c1.3-2.9,3.5-4.1,6.3-4.1c1.9,0,3.5,0.6,4.8,1.7l-0.8,5.3c-1.1-0.7-2.4-1.4-4.5-1.4
				c-2.6,0-5.8,1.6-5.8,7.4v15.9h-5.8V316z"/>
			<path class="st2" d="M766.9,344.3l-8.4-16.3l-3.7,3.7v12.6h-5.8V307l5.8-2.7v20.5l8.4-8.8h7.1l-7.8,7.9l10.6,20.5H766.9z"/>
			<path class="st2" d="M779.1,308.1c0-1.9,1.6-3.5,3.5-3.5c1.9,0,3.5,1.6,3.5,3.5c0,1.9-1.6,3.5-3.5,3.5
				C780.6,311.6,779.1,310,779.1,308.1z M779.7,316h5.8v28.3h-5.8V316z"/>
			<path class="st2" d="M811.4,327.4c0-4.8-2.4-6.7-5.7-6.7c-3.4,0-6.1,1.7-6.1,6.5v17h-5.8V316h5.8v2.7c1.8-2.3,4.2-3.4,7.3-3.4
				c5.9,0,10.2,3.2,10.2,12.1v16.9h-5.8V327.4z"/>
			<path class="st2" d="M831.8,351c8.3-0.5,10.5-2.9,10.5-6.4v-2.5c-1.6,2-3.9,2.9-6.8,2.9c-6.5,0-11.6-5-11.6-14.9
				c0-9.3,4.8-14.8,11.8-14.8c3.3,0,5.5,1.4,6.7,2.7v-2h5.8v26.5c0,9-4.6,12.3-13.4,12.9L831.8,351z M842.3,336.2V324
				c-1.2-1.9-3.4-3.2-5.8-3.2c-4.5,0-6.9,3.3-6.9,9.4c0,5.8,2.7,9.4,6.9,9.4C838.8,339.6,841,338.4,842.3,336.2z"/>
			<path class="st2" d="M869.1,324.9c0-9.5,5.3-20.1,16.9-20.1c7.4,0,10.9,3.5,13.3,7.4l-5.2,3c-1.8-2.6-4-4.7-8-4.7
				c-8.4,0-10.9,8-10.9,14.4c0,7.4,3.2,14.4,10.9,14.4c4.9,0,8.2-3.6,8.2-8.2v-0.8h-7v-5.4h12.9v5c0,9.8-6.2,15-14.1,15
				C874,345,869.1,335.1,869.1,324.9z"/>
			<path class="st2" d="M907.9,316h5.8v3.4c1.3-2.9,3.5-4.1,6.3-4.1c1.9,0,3.5,0.6,4.8,1.7l-0.8,5.3c-1.1-0.7-2.4-1.4-4.5-1.4
				c-2.6,0-5.8,1.6-5.8,7.4v15.9h-5.8V316z"/>
			<path class="st2" d="M928.6,330.2c0-9.3,5-14.9,12.9-14.9s13,5.5,13,14.9c0,9.3-5,14.8-13,14.8S928.6,339.5,928.6,330.2z
				 M948.7,330.2c0-5.8-2.8-9.4-7.2-9.4c-4.4,0-7.2,3.6-7.2,9.4c0,5.8,2.8,9.4,7.2,9.4C945.9,339.6,948.7,336,948.7,330.2z"/>
			<path class="st2" d="M978.7,341.6c-1.8,2.3-4.2,3.4-7.3,3.4c-5.9,0-10.2-3.2-10.2-12.1V316h5.8v16.9c0,4.8,2.4,6.7,5.7,6.7
				c3.4,0,6.1-1.7,6.1-6.5v-17h5.8v28.3h-5.8V341.6z"/>
			<path class="st2" d="M998.5,341.9v10.9l-5.8,2.7V316h5.8v2.3c1.5-1.7,3.5-2.9,6.8-2.9c7.2,0,11.6,5.5,11.6,14.9
				c0,9.3-4.7,14.8-11.6,14.8C1002,345,999.9,343.6,998.5,341.9z M1011.2,330.2c0-5.5-2.4-9.4-6.7-9.4c-2.7,0-4.7,1.2-6,3.2v12.3
				c1.3,1.7,3.3,3.3,6,3.3C1008.8,339.6,1011.2,336.2,1011.2,330.2z"/>
		</g>
	</g>
</g>
</svg>
