<?xml version="1.0" encoding="utf-8"?>
<!-- Generator: Adobe Illustrator 19.2.0, SVG Export Plug-In . SVG Version: 6.00 Build 0)  -->
<svg version="1.1" id="Layer_1" xmlns="http://www.w3.org/2000/svg" xmlns:xlink="http://www.w3.org/1999/xlink" x="0px" y="0px"
	 viewBox="0 0 472 156" style="enable-background:new 0 0 472 156;" xml:space="preserve">
<style type="text/css">
	.st0{fill:#060606;}
	.st1{fill:#005960;}
</style>
<title>IRCv3</title>
<desc>Created with Sketch.</desc>
<g id="Page-1">
	<g id="IRCv3">
		<path id="IRC" class="st0" d="M0,153.4h22.4V2.6H0V153.4z M62.3,153.4V2.6h63.6c37.1,0,48.7,22,48.7,44.6
			c0,17.5-9.7,36.6-32.8,42.7l31,63.6h-25.7l-29.8-61.6H84.7v61.6H62.3z M84.7,70.2h41.6c18.8,0,25-11.4,25-23.1
			c0-10.6-5.2-23.1-25-23.1H84.7V70.2z M265.4,156c26.7,0,43.1-13.4,51.5-33l-20.9-8c-6.9,11.4-15.7,19.4-30.6,19.4
			c-27.6,0-39.5-29.7-39.5-56.5c0-25,9.3-56.5,39.5-56.5c15.5,0,23.5,6.5,30.8,17.9l20.5-9.5c-6-14.9-22.9-30-51.3-30
			c-46.4,0-62.7,43.3-62.7,78C202.7,115.3,218.6,156,265.4,156z"/>
		<g id="v" transform="translate(331.000000, 112.000000)">
			<polygon id="left" class="st0" points="-2.1,-54.5 25.4,-15.3 13.2,2.1 -21.1,-46.9 			"/>
			<polygon id="right" class="st1" points="28.5,-54.5 1,-15.3 13.2,2.1 47.6,-46.9 			"/>
		</g>
		<path id="_x33_" class="st1" d="M419.2,156c30.4,0,52.8-16.6,52.8-47c0-17-9.9-28.7-25-34.7c13.2-6.7,19.4-18.7,19.4-32.8
			C466.4,19,447.2,0,419.8,0c-24.4,0-41.2,12.3-48.3,30.6l20.9,8c4.5-8.8,12.5-17,26.7-17c15.5,0,23.9,8.4,23.9,22.2
			c0,12.1-9.3,20.5-23.3,20.5h-11.6v21.5h11.6c20.5,0,28.9,11,28.9,24.1c0,17.2-13.4,24.6-29.5,24.6c-12.7,0-25.2-5.8-32.1-21.5
			l-20.9,8.4C374.6,142.2,392.4,156,419.2,156z"/>
	</g>
</g>
</svg>
